HIERARCHY
ROOT hip
{
  OFFSET 0 0 0
  CHANNELS 6 Xposition Yposition Zposition Zrotation Yrotation Xrotation
  JOINT abdomen
  {
    OFFSET 0 20.6881 -0.73152
    CHANNELS 3 Zrotation Xrotation Yrotation
    JOINT chest
    {
      OFFSET 0 11.7043 -0.48768
      CHANNELS 3 Zrotation Xrotation Yrotation
      JOINT neck
      {
        OFFSET 0 22.1894 -2.19456
        CHANNELS 3 Zrotation Xrotation Yrotation
        JOINT head
        {
          OFFSET -0.24384 7.07133 1.2192
          CHANNELS 3 Zrotation Xrotation Yrotation
          JOINT leftEye
          {
            OFFSET 4.14528 8.04674 8.04672
            CHANNELS 3 Zrotation Xrotation Yrotation
            End Site
            {
              OFFSET 1 0 0
            }
          }
          JOINT rightEye
          {
            OFFSET -3.6576 8.04674 8.04672
            CHANNELS 3 Zrotation Xrotation Yrotation
            End Site
            {
              OFFSET 1 0 0
            }
          }
        }
      }
      JOINT rCollar
      {
        OFFSET -2.68224 19.2634 -4.8768
        CHANNELS 3 Zrotation Xrotation Yrotation
        JOINT rShldr
        {
          OFFSET -8.77824 -1.95073 1.46304
          CHANNELS 3 Zrotation Xrotation Yrotation
          JOINT rForeArm
          {
            OFFSET -28.1742 -1.7115 0.48768
            CHANNELS 3 Zrotation Xrotation Yrotation
            JOINT rHand
            {
              OFFSET -22.5879 0.773209 7.07136
              CHANNELS 3 Zrotation Xrotation Yrotation
              JOINT rThumb1
              {
                OFFSET -1.2192 -0.487915 3.41376
                CHANNELS 3 Zrotation Xrotation Yrotation
                JOINT rThumb2
                {
                  OFFSET -3.37035 -0.52449 3.41376
                  CHANNELS 3 Zrotation Xrotation Yrotation
                  End Site
                  {
                    OFFSET -1.78271 -1.18214 1.43049
                  }
                }
              }
              JOINT rIndex1
              {
                OFFSET -7.75947 0.938293 5.60832
                CHANNELS 3 Zrotation Xrotation Yrotation
                JOINT rIndex2
                {
                  OFFSET -2.54057 -0.884171 1.56538
                  CHANNELS 3 Zrotation Xrotation Yrotation
                  End Site
                  {
                    OFFSET -1.62519 -0.234802 1.16502
                  }
                }
              }
              JOINT rMid1
              {
                OFFSET -8.24714 1.18213 3.41376
                CHANNELS 3 Zrotation Xrotation Yrotation
                JOINT rMid2
                {
                  OFFSET -3.10165 -0.590103 1.0647
                  CHANNELS 3 Zrotation Xrotation Yrotation
                  End Site
                  {
                    OFFSET -2.48547 -0.328903 0.83742
                  }
                }
              }
              JOINT rRing1
              {
                OFFSET -8.82822 0.546677 1.51678
                CHANNELS 3 Zrotation Xrotation Yrotation
                JOINT rRing2
                {
                  OFFSET -2.60934 -0.819778 -0.0198488
                  CHANNELS 3 Zrotation Xrotation Yrotation
                  End Site
                  {
                    OFFSET -2.33842 -0.294052 0.168128
                  }
                }
              }
              JOINT rPinky1
              {
                OFFSET -8.27202 -0.0477905 -0.4584
                CHANNELS 3 Zrotation Xrotation Yrotation
                JOINT rPinky2
                {
                  OFFSET -1.82734 -0.647385 -0.700984
                  CHANNELS 3 Zrotation Xrotation Yrotation
                  End Site
                  {
                    OFFSET -1.69225 -0.51767 -0.607171
                  }
                }
              }
            }
          }
        }
      }
      JOINT lCollar
      {
        OFFSET 2.68224 19.2634 -4.8768
        CHANNELS 3 Zrotation Xrotation Yrotation
        JOINT lShldr
        {
          OFFSET 8.77824 -1.95073 1.46304
          CHANNELS 3 Zrotation Xrotation Yrotation
          JOINT lForeArm
          {
            OFFSET 28.1742 -1.7115 0.48768
            CHANNELS 3 Zrotation Xrotation Yrotation
            JOINT lHand
            {
              OFFSET 22.5879 0.773209 7.07136
              CHANNELS 3 Zrotation Xrotation Yrotation
              JOINT lThumb1
              {
                OFFSET 1.2192 -0.487915 3.41376
                CHANNELS 3 Zrotation Xrotation Yrotation
                JOINT lThumb2
                {
                  OFFSET 3.37035 -0.52449 3.41376
                  CHANNELS 3 Zrotation Xrotation Yrotation
                  End Site
                  {
                    OFFSET 1.78271 -1.18214 1.43049
                  }
                }
              }
              JOINT lIndex1
              {
                OFFSET 7.75947 0.938293 5.60832
                CHANNELS 3 Zrotation Xrotation Yrotation
                JOINT lIndex2
                {
                  OFFSET 2.54057 -0.884171 1.56538
                  CHANNELS 3 Zrotation Xrotation Yrotation
                  End Site
                  {
                    OFFSET 1.62519 -0.234802 1.16502
                  }
                }
              }
              JOINT lMid1
              {
                OFFSET 8.24714 1.18213 3.41376
                CHANNELS 3 Zrotation Xrotation Yrotation
                JOINT lMid2
                {
                  OFFSET 3.10165 -0.590103 1.0647
                  CHANNELS 3 Zrotation Xrotation Yrotation
                  End Site
                  {
                    OFFSET 2.48547 -0.328903 0.83742
                  }
                }
              }
              JOINT lRing1
              {
                OFFSET 8.82822 0.546677 1.51678
                CHANNELS 3 Zrotation Xrotation Yrotation
                JOINT lRing2
                {
                  OFFSET 2.60934 -0.819778 -0.0198488
                  CHANNELS 3 Zrotation Xrotation Yrotation
                  End Site
                  {
                    OFFSET 2.33842 -0.294052 0.168128
                  }
                }
              }
              JOINT lPinky1
              {
                OFFSET 8.27202 -0.0477905 -0.4584
                CHANNELS 3 Zrotation Xrotation Yrotation
                JOINT lPinky2
                {
                  OFFSET 1.82734 -0.647385 -0.700984
                  CHANNELS 3 Zrotation Xrotation Yrotation
                  End Site
                  {
                    OFFSET 1.69225 -0.51767 -0.607171
                  }
                }
              }
            }
          }
        }
      }
    }
  }
  JOINT rButtock
  {
    OFFSET -8.77824 4.35084 1.2192
    CHANNELS 3 Zrotation Xrotation Yrotation
    JOINT rThigh
    {
      OFFSET 0 -1.70687 -2.19456
      CHANNELS 3 Zrotation Xrotation Yrotation
      JOINT rShin
      {
        OFFSET 0 -36.8199 0.73152
        CHANNELS 3 Zrotation Xrotation Yrotation
        JOINT rFoot
        {
          OFFSET 0.73152 -45.1104 -5.12064
          CHANNELS 3 Zrotation Xrotation Yrotation
          End Site
          {
            OFFSET -1.1221 -3.69964 12.103
          }
        }
      }
    }
  }
  JOINT lButtock
  {
    OFFSET 8.77824 4.35084 1.2192
    CHANNELS 3 Zrotation Xrotation Yrotation
    JOINT lThigh
    {
      OFFSET 0 -1.70687 -2.19456
      CHANNELS 3 Zrotation Xrotation Yrotation
      JOINT lShin
      {
        OFFSET 0 -36.8199 0.73152
        CHANNELS 3 Zrotation Xrotation Yrotation
        JOINT lFoot
        {
          OFFSET -0.73152 -45.1104 -5.12064
          CHANNELS 3 Zrotation Xrotation Yrotation
          End Site
          {
            OFFSET 1.1221 -3.69964 12.103
          }
        }
      }
    }
  }
}
MOTION
Frames:	4
Frame Time:	0.03333
-0.013900268822908401 61.970579624176025 0.08254740387201309 -3.8976681232452393 1.6780285835266113 4.42808198928833 -2.4015955924987793 14.898820877075195 3.9448177814483643 2.6068692207336426 -9.676295280456543 1.2216097116470337 -5.0808258056640625 15.02212905883789 -3.519160270690918 8.693191528320312 -23.831480026245117 -4.961917877197266 -0.03559434786438942 0.04471230506896973 0.008177672512829304 -0.037823598831892014 -0.03324596956372261 -0.0019614731427282095 0.04569536820054054 0.04242445155978203 -0.006109979469329119 42.19635009765625 36.11514663696289 19.248390197753906 -27.870193481445312 -28.971973419189453 65.3397445678711 -0.2529087960720062 -13.43735408782959 -1.8619201183319092 -0.005026937462389469 -0.0023628443013876677 -0.032255299389362335 -0.011477667838335037 -0.016288086771965027 -0.025250600650906563 -0.033834442496299744 0.04428044334053993 0.0031218372751027346 7.674260139465332 5.404114246368408 0.4091494381427765 0.05088678002357483 0.004475611727684736 -0.006917127873748541 2.922070264816284 0.9136382937431335 0.12404979765415192 0.025531591847538948 0.007408552803099155 0.033466435968875885 10.25335693359375 0.7137523889541626 0.04459667205810547 0.033758532255887985 0.0019721360877156258 -0.015399724245071411 2.222982406616211 -0.7169477343559265 -0.1954655945301056 -0.02147553116083145 -0.018739040940999985 0.0298500694334507 -48.90850830078125 37.704307556152344 -29.777381896972656 27.141128540039062 -26.558536529541016 -61.704402923583984 0.2828260362148285 -13.942205429077148 1.9142169952392578 -0.01757681369781494 -0.0025228005833923817 -0.02848723717033863 0.05804809555411339 0.035795703530311584 -0.028304368257522583 -0.02481263503432274 -0.005594438873231411 0.0011430319864302874 -7.713070869445801 5.459794998168945 -0.4637502431869507 -0.04483015090227127 0.019267400726675987 -0.009882403537631035 -2.8550946712493896 0.9304314851760864 -0.10158173739910126 0.022518999874591827 -0.005299055948853493 0.004057666752487421 -10.253375053405762 0.6721987128257751 -0.027312492951750755 -0.04630405455827713 0.006024978589266539 -0.002784015843644738 -2.1830661296844482 -0.7266667485237122 0.173508420586586 0.0549178346991539 -0.05443590506911278 -0.014119421131908894 -25.101093292236328 -40.32220458984375 -20.76543617248535 -1.5535720586776733 65.82337951660156 2.6344125270843506 -3.7254786491394043 -10.813721656799316 -9.962310791015625 -0.0541100837290287 0.019603662192821503 -0.015036292374134064 30.04608154296875 -40.130680084228516 22.972259521484375 1.7282980680465698 66.14462280273438 -2.8361401557922363 4.061418056488037 -10.934194564819336 13.372909545898438
-0.09763743728399277 62.77979016304016 0.05244836211204529 -4.005539417266846 1.6191619634628296 4.405722618103027 -2.474121332168579 14.637314796447754 4.008831977844238 2.5477547645568848 -9.671244621276855 1.1210651397705078 -4.986346244812012 15.123392105102539 -3.5107181072235107 8.521239280700684 -23.836307525634766 -4.910122394561768 -0.024225927889347076 0.01932343654334545 -0.03674587979912758 0.0033338021021336317 0.004120664205402136 -0.024562334641814232 0.07111857086420059 0.032557275146245956 -0.02751748450100422 43.29599380493164 36.31806564331055 18.878400802612305 -27.483089447021484 -28.533056259155273 65.18972778320312 -0.29901236295700073 -12.181638717651367 -1.6693381071090698 -0.003971253987401724 0.07065409421920776 -0.09687866270542145 -0.002492952160537243 -0.040427036583423615 0.0025339743588119745 -0.018710607662796974 0.09860484302043915 0.04693406820297241 7.77089786529541 5.493503570556641 0.4076900780200958 0.04641479626297951 -0.07764741033315659 -0.0009096213616430759 2.880519151687622 0.9318076372146606 0.1368873119354248 0.09029357880353928 -0.04939112812280655 0.06278429925441742 10.347893714904785 0.6984837055206299 -0.006563706323504448 0.014598439447581768 0.13451199233531952 -0.005883204750716686 2.2471983432769775 -0.7515029311180115 -0.1870630830526352 0.05615440383553505 -0.030669664964079857 0.038911353796720505 -50.100521087646484 38.129268646240234 -29.174652099609375 26.919767379760742 -26.302471160888672 -61.512332916259766 0.32820451259613037 -12.75108528137207 2.0068135261535645 0.05848579853773117 -0.038933392614126205 0.026701638475060463 0.0709422379732132 0.08369946479797363 -0.04089115187525749 -0.03419514000415802 -0.03194480389356613 0.006470903754234314 -7.7760443687438965 5.4760565757751465 -0.4630744755268097 -0.1243390217423439 0.04483160376548767 -0.026250649243593216 -2.8545823097229004 0.8996803760528564 -0.07424621284008026 0.01159505546092987 0.016737118363380432 0.11760399490594864 -10.415316581726074 0.7002924680709839 -0.05971632897853851 -0.057027582079172134 -0.02894342504441738 0.00196432345546782 -2.259021759033203 -0.7086666822433472 0.16133077442646027 0.017591357231140137 0.08649585396051407 0.011467551812529564 -24.737104415893555 -39.85310363769531 -20.303119659423828 -1.7019665241241455 65.54387664794922 2.763094663619995 -3.6513426303863525 -10.594286918640137 -9.973427772521973 -0.01753973215818405 0.027611209079623222 -0.042226675897836685 29.83603286743164 -39.747013092041016 22.36817741394043 1.6903398036956787 66.0070571899414 -2.8976099491119385 4.008325576782227 -10.65444564819336 13.250570297241211
0.07179258391261101 64.18436765670776 0.08172988891601562 -11.588081359863281 -17.804391860961914 6.983311176300049 7.489084243774414 13.536930084228516 10.332184791564941 -1.7790199518203735 -8.343542098999023 2.7590746879577637 -2.5411598682403564 12.39382553100586 2.5307791233062744 3.6429717540740967 -24.761566162109375 5.497105598449707 0.02499685063958168 -0.05379852280020714 0.04719412326812744 -0.2085055559873581 -0.04433415085077286 -0.38936346769332886 0.060132116079330444 0.25126913189888 0.016477271914482117 33.007080078125 40.19838333129883 30.70665740966797 -22.377052307128906 -16.74860954284668 45.77391815185547 -1.8836356401443481 32.62786102294922 5.9547882080078125 -0.08115513622760773 -0.2571633458137512 -0.34520167112350464 -0.17270156741142273 -0.21736499667167664 0.2258947342634201 0.16564567387104034 -0.16612493991851807 0.2923915386199951 7.560112476348877 5.258251190185547 0.28522270917892456 0.2570774257183075 -0.06809737533330917 0.13568167388439178 2.549098491668701 1.1974762678146362 0.26731130480766296 0.16158051788806915 -0.06302589178085327 0.0675821304321289 9.815690994262695 0.5581957101821899 0.05231289938092232 -0.018038807436823845 0.35597965121269226 -0.26810920238494873 2.28375244140625 -0.5766461491584778 -0.29551804065704346 -0.21721519529819489 0.2599530518054962 0.33574265241622925 -47.98120880126953 26.737930297851562 -34.65541076660156 26.165206909179688 -23.366762161254883 -56.20781326293945 1.478708028793335 -27.718002319335938 4.679042816162109 -0.022443603724241257 0.13263946771621704 0.0122070936486125 0.28045299649238586 0.04254958778619766 0.18345220386981964 -0.12797392904758453 -0.10929908603429794 0.24585437774658203 -7.90315580368042 5.3832688331604 -0.550190269947052 -0.24443106353282928 0.23068544268608093 0.04466426372528076 -2.5654118061065674 0.8656744956970215 0.008104607462882996 0.1522909700870514 -0.061159390956163406 0.06165575981140137 -9.924318313598633 0.6643187403678894 0.011691708117723465 -0.14135344326496124 0.070958711206913 -0.15336109697818756 -1.9399234056472778 -0.7756340503692627 0.062950998544693 0.02842836268246174 0.12882737815380096 -0.06895364075899124 -3.552992820739746 -3.729820489883423 -7.147669315338135 -0.7974492907524109 42.74589538574219 1.9243654012680054 -13.531896591186523 -16.496353149414062 -33.47772979736328 0.14830653369426727 0.06598641723394394 -0.3629709482192993 64.6253662109375 -64.92686462402344 56.01136779785156 3.242333173751831 73.79410552978516 -3.3319830894470215 -0.7018195390701294 1.6928125619888306 -0.06055063754320145
0.9893340989947319 71.69305086135864 -0.5127280950546265 -14.552287101745605 -15.861687660217285 3.711536169052124 9.57619571685791 12.836016654968262 9.062742233276367 -1.5018318891525269 -8.110771179199219 3.0122132301330566 -3.3731331825256348 12.621319770812988 0.5713081359863281 4.83929967880249 -25.69378089904785 4.9312424659729 -0.1418183594942093 -0.16677750647068024 0.4230553209781647 -0.38288572430610657 0.253628134727478 -0.5634129643440247 0.44574129581451416 -0.18470652401447296 -0.12092002481222153 37.38915252685547 45.169586181640625 40.93404769897461 -19.62611198425293 -12.674810409545898 36.90229415893555 -8.720346450805664 61.69660949707031 14.572626113891602 0.30148911476135254 -0.29465195536613464 0.03627919405698776 -0.18485261499881744 -0.44166305661201477 -0.07665585726499557 0.1945302039384842 0.169525608420372 0.22098390758037567 7.953526973724365 5.999014854431152 0.728462278842926 0.3868122100830078 -0.37043705582618713 0.458219438791275 2.770533561706543 1.0145668983459473 -0.1060924381017685 0.19300387799739838 0.05459323152899742 -0.10882112383842468 10.284079551696777 0.941720187664032 0.1715271770954132 -0.9106336236000061 0.5862278938293457 0.05145500972867012 1.849054217338562 -0.7126904129981995 -0.08506990224123001 -1.2350248098373413 0.3385847806930542 0.3775375485420227 -58.05405807495117 17.19013214111328 -51.9344596862793 26.396915435791016 -24.70201873779297 -58.407005310058594 4.756931304931641 -48.81507110595703 9.486428260803223 0.8166500926017761 -0.0490771047770977 0.23882077634334564 -0.27116745710372925 -0.14416596293449402 -0.07832632213830948 0.2313375622034073 -0.023453230038285255 0.9161515831947327 -7.917636871337891 5.486689567565918 -0.19962599873542786 -0.498075932264328 -0.4907207190990448 -0.004863722249865532 -2.2521443367004395 0.21745902299880981 0.3783254623413086 0.34790393710136414 -0.2558152973651886 0.33381396532058716 -9.833681106567383 0.625313937664032 -0.32263466715812683 -0.45905831456184387 -0.24850228428840637 -0.13314814865589142 -2.4057397842407227 -1.0644240379333496 0.12785537540912628 0.16286824643611908 -0.800711452960968 0.04275522381067276 1.7358415126800537 -0.18041618168354034 -11.023056983947754 -0.2574811279773712 47.41050720214844 1.9128013849258423 -17.552865982055664 -16.797510147094727 -39.92876052856445 -0.010958066210150719 0.08833454549312592 -0.20139823853969574 66.61431121826172 -65.6676254272461 58.53310012817383 2.8393969535827637 70.78682708740234 -2.2130126953125 -0.015424495562911034 2.0930943489074707 1.1058378219604492
